<mxfile host="app.diagrams.net" agent="Mozilla/5.0 (Windows NT 10.0; Win64; x64) AppleWebKit/537.36 (KHTML, like Gecko) Chrome/133.0.0.0 Safari/537.36 OPR/118.0.0.0" version="27.0.9">
  <diagram name="Page-1" id="sYl7tckjqW8m3IwkVgi7">
    <mxGraphModel dx="673" dy="1515" grid="1" gridSize="10" guides="1" tooltips="1" connect="1" arrows="1" fold="1" page="1" pageScale="1" pageWidth="850" pageHeight="1100" math="0" shadow="0">
      <root>
        <mxCell id="0" />
        <mxCell id="1" parent="0" />
        <mxCell id="1IBytOhJUT55JY2qpryn-1" value="&lt;font style=&quot;font-size: 16px;&quot;&gt;Events&lt;/font&gt;" style="rounded=0;whiteSpace=wrap;html=1;" vertex="1" parent="1">
          <mxGeometry x="300" y="190" width="100" height="30" as="geometry" />
        </mxCell>
        <mxCell id="1IBytOhJUT55JY2qpryn-2" value="Event_Name" style="ellipse;whiteSpace=wrap;html=1;" vertex="1" parent="1">
          <mxGeometry x="150" y="100" width="110" height="40" as="geometry" />
        </mxCell>
        <mxCell id="1IBytOhJUT55JY2qpryn-3" value="Event_Description" style="ellipse;whiteSpace=wrap;html=1;" vertex="1" parent="1">
          <mxGeometry x="470" y="70" width="110" height="40" as="geometry" />
        </mxCell>
        <mxCell id="1IBytOhJUT55JY2qpryn-4" value="Event_End_Date" style="ellipse;whiteSpace=wrap;html=1;" vertex="1" parent="1">
          <mxGeometry x="490" y="130" width="110" height="40" as="geometry" />
        </mxCell>
        <mxCell id="1IBytOhJUT55JY2qpryn-5" value="Event_Status" style="ellipse;whiteSpace=wrap;html=1;" vertex="1" parent="1">
          <mxGeometry x="484" y="232.5" width="110" height="40" as="geometry" />
        </mxCell>
        <mxCell id="1IBytOhJUT55JY2qpryn-6" value="Venue" style="ellipse;whiteSpace=wrap;html=1;" vertex="1" parent="1">
          <mxGeometry x="570" y="-160" width="110" height="40" as="geometry" />
        </mxCell>
        <mxCell id="1IBytOhJUT55JY2qpryn-7" value="Event_Start_Time" style="ellipse;whiteSpace=wrap;html=1;" vertex="1" parent="1">
          <mxGeometry x="50" y="135" width="110" height="40" as="geometry" />
        </mxCell>
        <mxCell id="1IBytOhJUT55JY2qpryn-8" value="" style="endArrow=none;html=1;rounded=0;entryX=0.236;entryY=0.967;entryDx=0;entryDy=0;entryPerimeter=0;" edge="1" parent="1" target="1IBytOhJUT55JY2qpryn-4">
          <mxGeometry width="50" height="50" relative="1" as="geometry">
            <mxPoint x="380" y="190" as="sourcePoint" />
            <mxPoint x="410" y="160" as="targetPoint" />
          </mxGeometry>
        </mxCell>
        <mxCell id="1IBytOhJUT55JY2qpryn-9" value="" style="endArrow=none;html=1;rounded=0;entryX=0;entryY=0;entryDx=0;entryDy=0;exitX=1;exitY=0.5;exitDx=0;exitDy=0;" edge="1" parent="1" source="1IBytOhJUT55JY2qpryn-7" target="1IBytOhJUT55JY2qpryn-1">
          <mxGeometry width="50" height="50" relative="1" as="geometry">
            <mxPoint x="260" y="260" as="sourcePoint" />
            <mxPoint x="310" y="210" as="targetPoint" />
          </mxGeometry>
        </mxCell>
        <mxCell id="1IBytOhJUT55JY2qpryn-10" value="" style="endArrow=none;html=1;rounded=0;exitX=0.5;exitY=0;exitDx=0;exitDy=0;entryX=0;entryY=1;entryDx=0;entryDy=0;" edge="1" parent="1" source="1IBytOhJUT55JY2qpryn-1" target="1IBytOhJUT55JY2qpryn-3">
          <mxGeometry width="50" height="50" relative="1" as="geometry">
            <mxPoint x="310" y="150" as="sourcePoint" />
            <mxPoint x="360" y="100" as="targetPoint" />
          </mxGeometry>
        </mxCell>
        <mxCell id="1IBytOhJUT55JY2qpryn-11" value="" style="endArrow=none;html=1;rounded=0;exitX=0.25;exitY=0;exitDx=0;exitDy=0;entryX=1;entryY=1;entryDx=0;entryDy=0;" edge="1" parent="1" source="1IBytOhJUT55JY2qpryn-1" target="1IBytOhJUT55JY2qpryn-2">
          <mxGeometry width="50" height="50" relative="1" as="geometry">
            <mxPoint x="240" y="190" as="sourcePoint" />
            <mxPoint x="290" y="140" as="targetPoint" />
          </mxGeometry>
        </mxCell>
        <mxCell id="1IBytOhJUT55JY2qpryn-12" value="" style="endArrow=none;html=1;rounded=0;entryX=1;entryY=1;entryDx=0;entryDy=0;exitX=0;exitY=0;exitDx=0;exitDy=0;" edge="1" parent="1" source="1IBytOhJUT55JY2qpryn-5" target="1IBytOhJUT55JY2qpryn-1">
          <mxGeometry width="50" height="50" relative="1" as="geometry">
            <mxPoint x="470" y="250" as="sourcePoint" />
            <mxPoint x="410" y="220" as="targetPoint" />
          </mxGeometry>
        </mxCell>
        <mxCell id="1IBytOhJUT55JY2qpryn-13" value="&lt;span style=&quot;font-size: 16px;&quot;&gt;Media&lt;/span&gt;" style="rounded=0;whiteSpace=wrap;html=1;" vertex="1" parent="1">
          <mxGeometry x="920" y="185" width="100" height="30" as="geometry" />
        </mxCell>
        <mxCell id="1IBytOhJUT55JY2qpryn-14" value="Type" style="ellipse;whiteSpace=wrap;html=1;" vertex="1" parent="1">
          <mxGeometry x="1020" y="120" width="110" height="40" as="geometry" />
        </mxCell>
        <mxCell id="1IBytOhJUT55JY2qpryn-15" value="File-url" style="ellipse;whiteSpace=wrap;html=1;" vertex="1" parent="1">
          <mxGeometry x="910" y="80" width="110" height="40" as="geometry" />
        </mxCell>
        <mxCell id="1IBytOhJUT55JY2qpryn-16" value="&lt;u&gt;Media_ID&lt;/u&gt;" style="ellipse;whiteSpace=wrap;html=1;" vertex="1" parent="1">
          <mxGeometry x="790" y="120" width="110" height="40" as="geometry" />
        </mxCell>
        <mxCell id="1IBytOhJUT55JY2qpryn-18" value="Timestamp" style="ellipse;whiteSpace=wrap;html=1;" vertex="1" parent="1">
          <mxGeometry x="990" y="260" width="110" height="40" as="geometry" />
        </mxCell>
        <mxCell id="1IBytOhJUT55JY2qpryn-19" value="" style="endArrow=none;html=1;rounded=0;exitX=0.25;exitY=0;exitDx=0;exitDy=0;" edge="1" parent="1" source="1IBytOhJUT55JY2qpryn-13">
          <mxGeometry width="50" height="50" relative="1" as="geometry">
            <mxPoint x="850" y="190" as="sourcePoint" />
            <mxPoint x="900" y="140" as="targetPoint" />
          </mxGeometry>
        </mxCell>
        <mxCell id="1IBytOhJUT55JY2qpryn-20" value="" style="endArrow=none;html=1;rounded=0;exitX=1;exitY=0;exitDx=0;exitDy=0;entryX=0.218;entryY=0.9;entryDx=0;entryDy=0;entryPerimeter=0;" edge="1" parent="1" source="1IBytOhJUT55JY2qpryn-13" target="1IBytOhJUT55JY2qpryn-14">
          <mxGeometry width="50" height="50" relative="1" as="geometry">
            <mxPoint x="1000" y="200" as="sourcePoint" />
            <mxPoint x="1050" y="150" as="targetPoint" />
          </mxGeometry>
        </mxCell>
        <mxCell id="1IBytOhJUT55JY2qpryn-22" value="" style="endArrow=none;html=1;rounded=0;exitX=0.5;exitY=0;exitDx=0;exitDy=0;" edge="1" parent="1" source="1IBytOhJUT55JY2qpryn-18">
          <mxGeometry width="50" height="50" relative="1" as="geometry">
            <mxPoint x="950" y="265" as="sourcePoint" />
            <mxPoint x="1000" y="215" as="targetPoint" />
          </mxGeometry>
        </mxCell>
        <mxCell id="1IBytOhJUT55JY2qpryn-23" value="" style="endArrow=none;html=1;rounded=0;" edge="1" parent="1">
          <mxGeometry width="50" height="50" relative="1" as="geometry">
            <mxPoint x="970" y="180" as="sourcePoint" />
            <mxPoint x="970" y="120" as="targetPoint" />
          </mxGeometry>
        </mxCell>
        <mxCell id="1IBytOhJUT55JY2qpryn-24" value="Includes" style="rhombus;whiteSpace=wrap;html=1;" vertex="1" parent="1">
          <mxGeometry x="640" y="170" width="80" height="80" as="geometry" />
        </mxCell>
        <mxCell id="1IBytOhJUT55JY2qpryn-25" value="" style="endArrow=none;html=1;rounded=0;entryX=0;entryY=0.5;entryDx=0;entryDy=0;exitX=1;exitY=0.75;exitDx=0;exitDy=0;" edge="1" parent="1" source="1IBytOhJUT55JY2qpryn-1" target="1IBytOhJUT55JY2qpryn-24">
          <mxGeometry width="50" height="50" relative="1" as="geometry">
            <mxPoint x="500" y="212" as="sourcePoint" />
            <mxPoint x="580" y="212" as="targetPoint" />
          </mxGeometry>
        </mxCell>
        <mxCell id="1IBytOhJUT55JY2qpryn-26" value="" style="endArrow=none;html=1;rounded=0;entryX=0;entryY=0.5;entryDx=0;entryDy=0;" edge="1" parent="1" target="1IBytOhJUT55JY2qpryn-13">
          <mxGeometry width="50" height="50" relative="1" as="geometry">
            <mxPoint x="720" y="211.5" as="sourcePoint" />
            <mxPoint x="910" y="220" as="targetPoint" />
          </mxGeometry>
        </mxCell>
        <mxCell id="1IBytOhJUT55JY2qpryn-27" value="&lt;span style=&quot;font-size: 16px;&quot;&gt;Tags/categories&lt;/span&gt;" style="rounded=0;whiteSpace=wrap;html=1;" vertex="1" parent="1">
          <mxGeometry x="220" y="530" width="130" height="30" as="geometry" />
        </mxCell>
        <mxCell id="1IBytOhJUT55JY2qpryn-28" value="Name" style="ellipse;whiteSpace=wrap;html=1;" vertex="1" parent="1">
          <mxGeometry x="230" y="620" width="110" height="40" as="geometry" />
        </mxCell>
        <mxCell id="1IBytOhJUT55JY2qpryn-29" value="" style="endArrow=none;html=1;rounded=0;exitX=0.5;exitY=0;exitDx=0;exitDy=0;entryX=0.5;entryY=1;entryDx=0;entryDy=0;" edge="1" parent="1" source="1IBytOhJUT55JY2qpryn-28" target="1IBytOhJUT55JY2qpryn-27">
          <mxGeometry width="50" height="50" relative="1" as="geometry">
            <mxPoint x="310" y="610" as="sourcePoint" />
            <mxPoint x="310" y="570" as="targetPoint" />
          </mxGeometry>
        </mxCell>
        <mxCell id="1IBytOhJUT55JY2qpryn-30" value="&lt;span style=&quot;font-size: 16px;&quot;&gt;Users&lt;/span&gt;" style="rounded=0;whiteSpace=wrap;html=1;" vertex="1" parent="1">
          <mxGeometry x="950" y="540" width="100" height="30" as="geometry" />
        </mxCell>
        <mxCell id="1IBytOhJUT55JY2qpryn-31" value="Department" style="ellipse;whiteSpace=wrap;html=1;" vertex="1" parent="1">
          <mxGeometry x="810" y="625" width="110" height="40" as="geometry" />
        </mxCell>
        <mxCell id="1IBytOhJUT55JY2qpryn-32" value="" style="endArrow=none;html=1;rounded=0;exitX=0.5;exitY=0;exitDx=0;exitDy=0;" edge="1" parent="1" source="1IBytOhJUT55JY2qpryn-31">
          <mxGeometry width="50" height="50" relative="1" as="geometry">
            <mxPoint x="1010" y="650" as="sourcePoint" />
            <mxPoint x="990" y="570" as="targetPoint" />
          </mxGeometry>
        </mxCell>
        <mxCell id="1IBytOhJUT55JY2qpryn-33" value="" style="endArrow=none;html=1;rounded=0;entryX=0.823;entryY=1.014;entryDx=0;entryDy=0;exitX=0.411;exitY=1.055;exitDx=0;exitDy=0;exitPerimeter=0;entryPerimeter=0;" edge="1" parent="1" source="1IBytOhJUT55JY2qpryn-128">
          <mxGeometry width="50" height="50" relative="1" as="geometry">
            <mxPoint x="1040" y="565" as="sourcePoint" />
            <mxPoint x="1024.6899999999998" y="540.4200000000001" as="targetPoint" />
          </mxGeometry>
        </mxCell>
        <mxCell id="1IBytOhJUT55JY2qpryn-34" value="Associated with" style="rhombus;whiteSpace=wrap;html=1;" vertex="1" parent="1">
          <mxGeometry x="245" y="360" width="80" height="80" as="geometry" />
        </mxCell>
        <mxCell id="1IBytOhJUT55JY2qpryn-35" value="Upload" style="rhombus;whiteSpace=wrap;html=1;" vertex="1" parent="1">
          <mxGeometry x="920" y="375" width="80" height="80" as="geometry" />
        </mxCell>
        <mxCell id="1IBytOhJUT55JY2qpryn-36" value="Create" style="rhombus;whiteSpace=wrap;html=1;" vertex="1" parent="1">
          <mxGeometry x="650" y="350" width="80" height="80" as="geometry" />
        </mxCell>
        <mxCell id="1IBytOhJUT55JY2qpryn-37" value="" style="endArrow=none;html=1;rounded=0;entryX=0;entryY=0.5;entryDx=0;entryDy=0;exitX=1;exitY=1;exitDx=0;exitDy=0;" edge="1" parent="1" source="1IBytOhJUT55JY2qpryn-36" target="1IBytOhJUT55JY2qpryn-30">
          <mxGeometry width="50" height="50" relative="1" as="geometry">
            <mxPoint x="670" y="450" as="sourcePoint" />
            <mxPoint x="720" y="400" as="targetPoint" />
          </mxGeometry>
        </mxCell>
        <mxCell id="1IBytOhJUT55JY2qpryn-38" value="" style="endArrow=none;html=1;rounded=0;entryX=0;entryY=0;entryDx=0;entryDy=0;" edge="1" parent="1" target="1IBytOhJUT55JY2qpryn-36">
          <mxGeometry width="50" height="50" relative="1" as="geometry">
            <mxPoint x="360" y="220" as="sourcePoint" />
            <mxPoint x="640" y="325" as="targetPoint" />
          </mxGeometry>
        </mxCell>
        <mxCell id="1IBytOhJUT55JY2qpryn-39" value="" style="endArrow=none;html=1;rounded=0;exitX=0.5;exitY=0;exitDx=0;exitDy=0;" edge="1" parent="1" source="1IBytOhJUT55JY2qpryn-34">
          <mxGeometry width="50" height="50" relative="1" as="geometry">
            <mxPoint x="300" y="270" as="sourcePoint" />
            <mxPoint x="350" y="220" as="targetPoint" />
          </mxGeometry>
        </mxCell>
        <mxCell id="1IBytOhJUT55JY2qpryn-40" value="" style="endArrow=none;html=1;rounded=0;exitX=0.5;exitY=0;exitDx=0;exitDy=0;entryX=0.5;entryY=1;entryDx=0;entryDy=0;" edge="1" parent="1" source="1IBytOhJUT55JY2qpryn-27" target="1IBytOhJUT55JY2qpryn-34">
          <mxGeometry width="50" height="50" relative="1" as="geometry">
            <mxPoint x="349.5" y="500" as="sourcePoint" />
            <mxPoint x="349.5" y="450" as="targetPoint" />
          </mxGeometry>
        </mxCell>
        <mxCell id="1IBytOhJUT55JY2qpryn-41" value="" style="endArrow=none;html=1;rounded=0;exitX=0.5;exitY=0;exitDx=0;exitDy=0;entryX=0.5;entryY=1;entryDx=0;entryDy=0;" edge="1" parent="1" source="1IBytOhJUT55JY2qpryn-30" target="1IBytOhJUT55JY2qpryn-35">
          <mxGeometry width="50" height="50" relative="1" as="geometry">
            <mxPoint x="990" y="510" as="sourcePoint" />
            <mxPoint x="950" y="460" as="targetPoint" />
          </mxGeometry>
        </mxCell>
        <mxCell id="1IBytOhJUT55JY2qpryn-42" value="" style="endArrow=none;html=1;rounded=0;entryX=0.25;entryY=1;entryDx=0;entryDy=0;exitX=0.5;exitY=0;exitDx=0;exitDy=0;" edge="1" parent="1" target="1IBytOhJUT55JY2qpryn-13" source="1IBytOhJUT55JY2qpryn-35">
          <mxGeometry width="50" height="50" relative="1" as="geometry">
            <mxPoint x="950" y="380" as="sourcePoint" />
            <mxPoint x="1000" y="330" as="targetPoint" />
          </mxGeometry>
        </mxCell>
        <mxCell id="1IBytOhJUT55JY2qpryn-43" value="1" style="text;html=1;align=center;verticalAlign=middle;whiteSpace=wrap;rounded=0;" vertex="1" parent="1">
          <mxGeometry x="440" y="185" width="30" height="30" as="geometry" />
        </mxCell>
        <mxCell id="1IBytOhJUT55JY2qpryn-44" value="M" style="text;html=1;align=center;verticalAlign=middle;whiteSpace=wrap;rounded=0;" vertex="1" parent="1">
          <mxGeometry x="860" y="175" width="60" height="30" as="geometry" />
        </mxCell>
        <mxCell id="1IBytOhJUT55JY2qpryn-45" value="M" style="text;html=1;align=center;verticalAlign=middle;whiteSpace=wrap;rounded=0;" vertex="1" parent="1">
          <mxGeometry x="300" y="226" width="60" height="30" as="geometry" />
        </mxCell>
        <mxCell id="1IBytOhJUT55JY2qpryn-46" value="M" style="text;html=1;align=center;verticalAlign=middle;whiteSpace=wrap;rounded=0;" vertex="1" parent="1">
          <mxGeometry x="240" y="500" width="60" height="30" as="geometry" />
        </mxCell>
        <mxCell id="1IBytOhJUT55JY2qpryn-47" value="M" style="text;html=1;align=center;verticalAlign=middle;whiteSpace=wrap;rounded=0;" vertex="1" parent="1">
          <mxGeometry x="900" y="210" width="60" height="30" as="geometry" />
        </mxCell>
        <mxCell id="1IBytOhJUT55JY2qpryn-48" value="" style="endArrow=none;html=1;rounded=0;exitX=0.5;exitY=0;exitDx=0;exitDy=0;" edge="1" parent="1" source="1IBytOhJUT55JY2qpryn-30">
          <mxGeometry width="50" height="50" relative="1" as="geometry">
            <mxPoint x="1000" y="540" as="sourcePoint" />
            <mxPoint x="1000" y="540" as="targetPoint" />
          </mxGeometry>
        </mxCell>
        <mxCell id="1IBytOhJUT55JY2qpryn-49" value="1" style="text;html=1;align=center;verticalAlign=middle;whiteSpace=wrap;rounded=0;" vertex="1" parent="1">
          <mxGeometry x="950" y="510" width="60" height="30" as="geometry" />
        </mxCell>
        <mxCell id="1IBytOhJUT55JY2qpryn-50" value="M" style="text;html=1;align=center;verticalAlign=middle;whiteSpace=wrap;rounded=0;" vertex="1" parent="1">
          <mxGeometry x="395" y="226" width="60" height="30" as="geometry" />
        </mxCell>
        <mxCell id="1IBytOhJUT55JY2qpryn-51" value="M" style="text;html=1;align=center;verticalAlign=middle;whiteSpace=wrap;rounded=0;" vertex="1" parent="1">
          <mxGeometry x="900" y="515" width="60" height="30" as="geometry" />
        </mxCell>
        <mxCell id="1IBytOhJUT55JY2qpryn-52" value="" style="endArrow=none;html=1;rounded=0;exitX=0.5;exitY=1;exitDx=0;exitDy=0;entryX=0;entryY=0;entryDx=0;entryDy=0;" edge="1" parent="1" source="1IBytOhJUT55JY2qpryn-1" target="1IBytOhJUT55JY2qpryn-53">
          <mxGeometry width="50" height="50" relative="1" as="geometry">
            <mxPoint x="380" y="275" as="sourcePoint" />
            <mxPoint x="540" y="420" as="targetPoint" />
          </mxGeometry>
        </mxCell>
        <mxCell id="1IBytOhJUT55JY2qpryn-53" value="request" style="rhombus;whiteSpace=wrap;html=1;" vertex="1" parent="1">
          <mxGeometry x="520" y="380" width="80" height="80" as="geometry" />
        </mxCell>
        <mxCell id="1IBytOhJUT55JY2qpryn-54" value="&lt;span style=&quot;font-size: 16px;&quot;&gt;Budget&lt;/span&gt;" style="rounded=0;whiteSpace=wrap;html=1;" vertex="1" parent="1">
          <mxGeometry x="579" y="585" width="100" height="30" as="geometry" />
        </mxCell>
        <mxCell id="1IBytOhJUT55JY2qpryn-55" value="" style="endArrow=none;html=1;rounded=0;exitX=1;exitY=1;exitDx=0;exitDy=0;entryX=0.428;entryY=-0.072;entryDx=0;entryDy=0;entryPerimeter=0;" edge="1" parent="1" source="1IBytOhJUT55JY2qpryn-53" target="1IBytOhJUT55JY2qpryn-54">
          <mxGeometry width="50" height="50" relative="1" as="geometry">
            <mxPoint x="480" y="390" as="sourcePoint" />
            <mxPoint x="640" y="620" as="targetPoint" />
          </mxGeometry>
        </mxCell>
        <mxCell id="1IBytOhJUT55JY2qpryn-56" value="M" style="text;html=1;align=center;verticalAlign=middle;whiteSpace=wrap;rounded=0;" vertex="1" parent="1">
          <mxGeometry x="570" y="545" width="60" height="30" as="geometry" />
        </mxCell>
        <mxCell id="1IBytOhJUT55JY2qpryn-57" value="1" style="text;html=1;align=center;verticalAlign=middle;whiteSpace=wrap;rounded=0;" vertex="1" parent="1">
          <mxGeometry x="350" y="242.5" width="60" height="30" as="geometry" />
        </mxCell>
        <mxCell id="1IBytOhJUT55JY2qpryn-58" value="Budget_ID" style="ellipse;whiteSpace=wrap;html=1;" vertex="1" parent="1">
          <mxGeometry x="484" y="640" width="110" height="40" as="geometry" />
        </mxCell>
        <mxCell id="1IBytOhJUT55JY2qpryn-59" value="Name" style="ellipse;whiteSpace=wrap;html=1;" vertex="1" parent="1">
          <mxGeometry x="574" y="695" width="110" height="40" as="geometry" />
        </mxCell>
        <mxCell id="1IBytOhJUT55JY2qpryn-60" value="Item_Price" style="ellipse;whiteSpace=wrap;html=1;" vertex="1" parent="1">
          <mxGeometry x="695" y="555" width="110" height="40" as="geometry" />
        </mxCell>
        <mxCell id="1IBytOhJUT55JY2qpryn-61" value="Quantity" style="ellipse;whiteSpace=wrap;html=1;" vertex="1" parent="1">
          <mxGeometry x="670" y="640" width="110" height="40" as="geometry" />
        </mxCell>
        <mxCell id="1IBytOhJUT55JY2qpryn-62" value="Total_Price" style="ellipse;whiteSpace=wrap;html=1;" vertex="1" parent="1">
          <mxGeometry x="454" y="540" width="110" height="40" as="geometry" />
        </mxCell>
        <mxCell id="1IBytOhJUT55JY2qpryn-63" value="" style="endArrow=none;html=1;rounded=0;exitX=1;exitY=0.5;exitDx=0;exitDy=0;entryX=0.5;entryY=1;entryDx=0;entryDy=0;" edge="1" parent="1" source="1IBytOhJUT55JY2qpryn-54" target="1IBytOhJUT55JY2qpryn-60">
          <mxGeometry width="50" height="50" relative="1" as="geometry">
            <mxPoint x="679" y="626" as="sourcePoint" />
            <mxPoint x="715" y="585" as="targetPoint" />
          </mxGeometry>
        </mxCell>
        <mxCell id="1IBytOhJUT55JY2qpryn-64" value="" style="endArrow=none;html=1;rounded=0;exitX=1;exitY=1;exitDx=0;exitDy=0;entryX=0.5;entryY=0;entryDx=0;entryDy=0;" edge="1" parent="1" source="1IBytOhJUT55JY2qpryn-54" target="1IBytOhJUT55JY2qpryn-61">
          <mxGeometry width="50" height="50" relative="1" as="geometry">
            <mxPoint x="750" y="671" as="sourcePoint" />
            <mxPoint x="786" y="630" as="targetPoint" />
          </mxGeometry>
        </mxCell>
        <mxCell id="1IBytOhJUT55JY2qpryn-65" value="" style="endArrow=none;html=1;rounded=0;exitX=0.5;exitY=0;exitDx=0;exitDy=0;entryX=0.5;entryY=1;entryDx=0;entryDy=0;" edge="1" parent="1" source="1IBytOhJUT55JY2qpryn-59" target="1IBytOhJUT55JY2qpryn-54">
          <mxGeometry width="50" height="50" relative="1" as="geometry">
            <mxPoint x="650" y="691" as="sourcePoint" />
            <mxPoint x="686" y="650" as="targetPoint" />
          </mxGeometry>
        </mxCell>
        <mxCell id="1IBytOhJUT55JY2qpryn-66" value="" style="endArrow=none;html=1;rounded=0;entryX=0;entryY=1;entryDx=0;entryDy=0;exitX=0.5;exitY=0;exitDx=0;exitDy=0;" edge="1" parent="1" source="1IBytOhJUT55JY2qpryn-58" target="1IBytOhJUT55JY2qpryn-54">
          <mxGeometry width="50" height="50" relative="1" as="geometry">
            <mxPoint x="600" y="701" as="sourcePoint" />
            <mxPoint x="636" y="660" as="targetPoint" />
          </mxGeometry>
        </mxCell>
        <mxCell id="1IBytOhJUT55JY2qpryn-67" value="" style="endArrow=none;html=1;rounded=0;exitX=0.5;exitY=1;exitDx=0;exitDy=0;entryX=0;entryY=0.25;entryDx=0;entryDy=0;" edge="1" parent="1" source="1IBytOhJUT55JY2qpryn-62" target="1IBytOhJUT55JY2qpryn-54">
          <mxGeometry width="50" height="50" relative="1" as="geometry">
            <mxPoint x="560" y="621" as="sourcePoint" />
            <mxPoint x="596" y="580" as="targetPoint" />
          </mxGeometry>
        </mxCell>
        <mxCell id="1IBytOhJUT55JY2qpryn-68" value="Event_End_Time" style="ellipse;whiteSpace=wrap;html=1;" vertex="1" parent="1">
          <mxGeometry x="60" y="192.5" width="110" height="40" as="geometry" />
        </mxCell>
        <mxCell id="1IBytOhJUT55JY2qpryn-69" value="" style="endArrow=none;html=1;rounded=0;entryX=0;entryY=0.5;entryDx=0;entryDy=0;exitX=1;exitY=0.5;exitDx=0;exitDy=0;" edge="1" parent="1" source="1IBytOhJUT55JY2qpryn-68" target="1IBytOhJUT55JY2qpryn-1">
          <mxGeometry width="50" height="50" relative="1" as="geometry">
            <mxPoint x="440" y="325" as="sourcePoint" />
            <mxPoint x="480" y="270" as="targetPoint" />
          </mxGeometry>
        </mxCell>
        <mxCell id="1IBytOhJUT55JY2qpryn-70" value="&lt;u&gt;Event_ID&lt;/u&gt;" style="ellipse;whiteSpace=wrap;html=1;" vertex="1" parent="1">
          <mxGeometry x="160" y="40" width="110" height="40" as="geometry" />
        </mxCell>
        <mxCell id="1IBytOhJUT55JY2qpryn-71" value="" style="endArrow=none;html=1;rounded=0;entryX=0.25;entryY=0;entryDx=0;entryDy=0;exitX=1;exitY=1;exitDx=0;exitDy=0;" edge="1" parent="1" source="1IBytOhJUT55JY2qpryn-70" target="1IBytOhJUT55JY2qpryn-1">
          <mxGeometry width="50" height="50" relative="1" as="geometry">
            <mxPoint x="340" y="135" as="sourcePoint" />
            <mxPoint x="380" y="80" as="targetPoint" />
          </mxGeometry>
        </mxCell>
        <mxCell id="1IBytOhJUT55JY2qpryn-72" value="Available_Seats" style="ellipse;whiteSpace=wrap;html=1;" vertex="1" parent="1">
          <mxGeometry x="695" y="-290" width="110" height="40" as="geometry" />
        </mxCell>
        <mxCell id="1IBytOhJUT55JY2qpryn-73" value="Event_Start_Date" style="ellipse;whiteSpace=wrap;html=1;" vertex="1" parent="1">
          <mxGeometry x="380" y="30" width="110" height="40" as="geometry" />
        </mxCell>
        <mxCell id="1IBytOhJUT55JY2qpryn-74" value="" style="endArrow=none;html=1;rounded=0;exitX=0.436;exitY=-0.003;exitDx=0;exitDy=0;exitPerimeter=0;" edge="1" parent="1" source="1IBytOhJUT55JY2qpryn-1" target="1IBytOhJUT55JY2qpryn-73">
          <mxGeometry width="50" height="50" relative="1" as="geometry">
            <mxPoint x="250" y="147.5" as="sourcePoint" />
            <mxPoint x="280" y="117.5" as="targetPoint" />
          </mxGeometry>
        </mxCell>
        <mxCell id="1IBytOhJUT55JY2qpryn-75" value="Host" style="ellipse;whiteSpace=wrap;html=1;" vertex="1" parent="1">
          <mxGeometry x="120" y="300" width="110" height="40" as="geometry" />
        </mxCell>
        <mxCell id="1IBytOhJUT55JY2qpryn-76" value="" style="endArrow=none;html=1;rounded=0;entryX=0.25;entryY=1;entryDx=0;entryDy=0;exitX=1;exitY=0;exitDx=0;exitDy=0;" edge="1" parent="1" source="1IBytOhJUT55JY2qpryn-75" target="1IBytOhJUT55JY2qpryn-1">
          <mxGeometry width="50" height="50" relative="1" as="geometry">
            <mxPoint x="460" y="340.5" as="sourcePoint" />
            <mxPoint x="410" y="262.5" as="targetPoint" />
          </mxGeometry>
        </mxCell>
        <mxCell id="1IBytOhJUT55JY2qpryn-79" value="&lt;u&gt;Tag_ID&lt;/u&gt;" style="ellipse;whiteSpace=wrap;html=1;" vertex="1" parent="1">
          <mxGeometry x="150" y="670" width="110" height="40" as="geometry" />
        </mxCell>
        <mxCell id="1IBytOhJUT55JY2qpryn-80" value="" style="endArrow=none;html=1;rounded=0;exitX=0.5;exitY=0;exitDx=0;exitDy=0;entryX=0.22;entryY=1.03;entryDx=0;entryDy=0;entryPerimeter=0;" edge="1" parent="1" source="1IBytOhJUT55JY2qpryn-79" target="1IBytOhJUT55JY2qpryn-27">
          <mxGeometry width="50" height="50" relative="1" as="geometry">
            <mxPoint x="200" y="600" as="sourcePoint" />
            <mxPoint x="165" y="550" as="targetPoint" />
          </mxGeometry>
        </mxCell>
        <mxCell id="1IBytOhJUT55JY2qpryn-81" value="Tag_Description" style="ellipse;whiteSpace=wrap;html=1;" vertex="1" parent="1">
          <mxGeometry x="315" y="670" width="110" height="40" as="geometry" />
        </mxCell>
        <mxCell id="1IBytOhJUT55JY2qpryn-82" value="" style="endArrow=none;html=1;rounded=0;exitX=0.5;exitY=0;exitDx=0;exitDy=0;entryX=0.75;entryY=1;entryDx=0;entryDy=0;" edge="1" parent="1" source="1IBytOhJUT55JY2qpryn-81" target="1IBytOhJUT55JY2qpryn-27">
          <mxGeometry width="50" height="50" relative="1" as="geometry">
            <mxPoint x="410" y="610" as="sourcePoint" />
            <mxPoint x="375" y="560" as="targetPoint" />
          </mxGeometry>
        </mxCell>
        <mxCell id="1IBytOhJUT55JY2qpryn-83" value="&lt;span style=&quot;font-size: 16px;&quot;&gt;Role&lt;/span&gt;" style="rounded=0;whiteSpace=wrap;html=1;" vertex="1" parent="1">
          <mxGeometry x="1255" y="680" width="100" height="30" as="geometry" />
        </mxCell>
        <mxCell id="1IBytOhJUT55JY2qpryn-85" value="Role_Name" style="ellipse;whiteSpace=wrap;html=1;" vertex="1" parent="1">
          <mxGeometry x="1330" y="780" width="110" height="40" as="geometry" />
        </mxCell>
        <mxCell id="1IBytOhJUT55JY2qpryn-86" value="&lt;u&gt;Role_ID&lt;/u&gt;" style="ellipse;whiteSpace=wrap;html=1;" vertex="1" parent="1">
          <mxGeometry x="1190" y="790" width="110" height="40" as="geometry" />
        </mxCell>
        <mxCell id="1IBytOhJUT55JY2qpryn-88" value="" style="endArrow=none;html=1;rounded=0;exitX=0.5;exitY=1;exitDx=0;exitDy=0;entryX=0.5;entryY=0;entryDx=0;entryDy=0;" edge="1" parent="1" source="1IBytOhJUT55JY2qpryn-83" target="1IBytOhJUT55JY2qpryn-85">
          <mxGeometry width="50" height="50" relative="1" as="geometry">
            <mxPoint x="1250" y="390" as="sourcePoint" />
            <mxPoint x="1310" y="440" as="targetPoint" />
          </mxGeometry>
        </mxCell>
        <mxCell id="1IBytOhJUT55JY2qpryn-89" value="" style="endArrow=none;html=1;rounded=0;exitX=0.25;exitY=1;exitDx=0;exitDy=0;entryX=0.5;entryY=0;entryDx=0;entryDy=0;" edge="1" parent="1" source="1IBytOhJUT55JY2qpryn-83" target="1IBytOhJUT55JY2qpryn-86">
          <mxGeometry width="50" height="50" relative="1" as="geometry">
            <mxPoint x="1230" y="390" as="sourcePoint" />
            <mxPoint x="1290" y="440" as="targetPoint" />
          </mxGeometry>
        </mxCell>
        <mxCell id="1IBytOhJUT55JY2qpryn-90" value="&lt;span style=&quot;font-size: 16px;&quot;&gt;permission_level&lt;/span&gt;" style="rounded=0;whiteSpace=wrap;html=1;" vertex="1" parent="1">
          <mxGeometry x="1400" y="450" width="140" height="30" as="geometry" />
        </mxCell>
        <mxCell id="1IBytOhJUT55JY2qpryn-91" value="Permission_level" style="ellipse;whiteSpace=wrap;html=1;" vertex="1" parent="1">
          <mxGeometry x="1460" y="340" width="110" height="40" as="geometry" />
        </mxCell>
        <mxCell id="1IBytOhJUT55JY2qpryn-92" value="" style="endArrow=none;html=1;rounded=0;exitX=0.5;exitY=0;exitDx=0;exitDy=0;entryX=0.5;entryY=1;entryDx=0;entryDy=0;" edge="1" parent="1" source="1IBytOhJUT55JY2qpryn-90" target="1IBytOhJUT55JY2qpryn-91">
          <mxGeometry width="50" height="50" relative="1" as="geometry">
            <mxPoint x="1550" y="315" as="sourcePoint" />
            <mxPoint x="1600" y="310" as="targetPoint" />
          </mxGeometry>
        </mxCell>
        <mxCell id="1IBytOhJUT55JY2qpryn-93" value="&lt;font style=&quot;font-size: 16px;&quot;&gt;Event location&lt;/font&gt;" style="rounded=0;whiteSpace=wrap;html=1;" vertex="1" parent="1">
          <mxGeometry x="565" y="-230" width="120" height="30" as="geometry" />
        </mxCell>
        <mxCell id="1IBytOhJUT55JY2qpryn-94" value="Location_ID" style="ellipse;whiteSpace=wrap;html=1;" vertex="1" parent="1">
          <mxGeometry x="724" y="-200" width="110" height="40" as="geometry" />
        </mxCell>
        <mxCell id="1IBytOhJUT55JY2qpryn-95" value="Buliding" style="ellipse;whiteSpace=wrap;html=1;" vertex="1" parent="1">
          <mxGeometry x="410" y="-230" width="110" height="40" as="geometry" />
        </mxCell>
        <mxCell id="1IBytOhJUT55JY2qpryn-96" value="" style="endArrow=none;html=1;rounded=0;exitX=0.5;exitY=0;exitDx=0;exitDy=0;entryX=0.5;entryY=1;entryDx=0;entryDy=0;" edge="1" parent="1" source="1IBytOhJUT55JY2qpryn-6" target="1IBytOhJUT55JY2qpryn-93">
          <mxGeometry width="50" height="50" relative="1" as="geometry">
            <mxPoint x="260" y="-190" as="sourcePoint" />
            <mxPoint x="310" y="-240" as="targetPoint" />
          </mxGeometry>
        </mxCell>
        <mxCell id="1IBytOhJUT55JY2qpryn-97" value="" style="endArrow=none;html=1;rounded=0;exitX=0;exitY=0.5;exitDx=0;exitDy=0;entryX=1;entryY=1;entryDx=0;entryDy=0;" edge="1" parent="1" source="1IBytOhJUT55JY2qpryn-94" target="1IBytOhJUT55JY2qpryn-93">
          <mxGeometry width="50" height="50" relative="1" as="geometry">
            <mxPoint x="380" y="-190" as="sourcePoint" />
            <mxPoint x="380" y="-230" as="targetPoint" />
          </mxGeometry>
        </mxCell>
        <mxCell id="1IBytOhJUT55JY2qpryn-98" value="" style="endArrow=none;html=1;rounded=0;exitX=1;exitY=0.5;exitDx=0;exitDy=0;entryX=0;entryY=0.5;entryDx=0;entryDy=0;" edge="1" parent="1" source="1IBytOhJUT55JY2qpryn-95" target="1IBytOhJUT55JY2qpryn-93">
          <mxGeometry width="50" height="50" relative="1" as="geometry">
            <mxPoint x="200" y="-190" as="sourcePoint" />
            <mxPoint x="250" y="-240" as="targetPoint" />
          </mxGeometry>
        </mxCell>
        <mxCell id="1IBytOhJUT55JY2qpryn-99" value="" style="endArrow=none;html=1;rounded=0;exitX=1;exitY=0.5;exitDx=0;exitDy=0;entryX=0.5;entryY=1;entryDx=0;entryDy=0;" edge="1" parent="1" source="1IBytOhJUT55JY2qpryn-93" target="1IBytOhJUT55JY2qpryn-72">
          <mxGeometry width="50" height="50" relative="1" as="geometry">
            <mxPoint x="540" y="-280" as="sourcePoint" />
            <mxPoint x="511" y="-290" as="targetPoint" />
          </mxGeometry>
        </mxCell>
        <mxCell id="1IBytOhJUT55JY2qpryn-100" value="have" style="rhombus;whiteSpace=wrap;html=1;" vertex="1" parent="1">
          <mxGeometry x="1195" y="530" width="80" height="80" as="geometry" />
        </mxCell>
        <mxCell id="1IBytOhJUT55JY2qpryn-101" value="" style="endArrow=none;html=1;rounded=0;entryX=0;entryY=0.5;entryDx=0;entryDy=0;exitX=1;exitY=0.5;exitDx=0;exitDy=0;" edge="1" parent="1" source="1IBytOhJUT55JY2qpryn-30" target="1IBytOhJUT55JY2qpryn-100">
          <mxGeometry width="50" height="50" relative="1" as="geometry">
            <mxPoint x="1070" y="570" as="sourcePoint" />
            <mxPoint x="1120" y="520" as="targetPoint" />
          </mxGeometry>
        </mxCell>
        <mxCell id="1IBytOhJUT55JY2qpryn-102" value="" style="endArrow=none;html=1;rounded=0;exitX=0.5;exitY=0;exitDx=0;exitDy=0;entryX=1;entryY=0.5;entryDx=0;entryDy=0;" edge="1" parent="1" source="1IBytOhJUT55JY2qpryn-83" target="1IBytOhJUT55JY2qpryn-100">
          <mxGeometry width="50" height="50" relative="1" as="geometry">
            <mxPoint x="1240" y="625" as="sourcePoint" />
            <mxPoint x="1290" y="575" as="targetPoint" />
          </mxGeometry>
        </mxCell>
        <mxCell id="1IBytOhJUT55JY2qpryn-103" value="has" style="rhombus;whiteSpace=wrap;html=1;" vertex="1" parent="1">
          <mxGeometry x="1370" y="550" width="80" height="80" as="geometry" />
        </mxCell>
        <mxCell id="1IBytOhJUT55JY2qpryn-104" value="" style="endArrow=none;html=1;rounded=0;entryX=0.25;entryY=1;entryDx=0;entryDy=0;exitX=0.5;exitY=0;exitDx=0;exitDy=0;" edge="1" parent="1" source="1IBytOhJUT55JY2qpryn-103" target="1IBytOhJUT55JY2qpryn-90">
          <mxGeometry width="50" height="50" relative="1" as="geometry">
            <mxPoint x="1210" y="420" as="sourcePoint" />
            <mxPoint x="1355" y="435" as="targetPoint" />
            <Array as="points" />
          </mxGeometry>
        </mxCell>
        <mxCell id="1IBytOhJUT55JY2qpryn-105" value="Includes" style="rhombus;whiteSpace=wrap;html=1;" vertex="1" parent="1">
          <mxGeometry x="280" y="-150" width="80" height="80" as="geometry" />
        </mxCell>
        <mxCell id="1IBytOhJUT55JY2qpryn-106" value="" style="endArrow=none;html=1;rounded=0;entryX=0;entryY=1;entryDx=0;entryDy=0;exitX=1;exitY=0.5;exitDx=0;exitDy=0;" edge="1" parent="1" source="1IBytOhJUT55JY2qpryn-105" target="1IBytOhJUT55JY2qpryn-93">
          <mxGeometry width="50" height="50" relative="1" as="geometry">
            <mxPoint x="360" y="-100" as="sourcePoint" />
            <mxPoint x="410" y="-150" as="targetPoint" />
          </mxGeometry>
        </mxCell>
        <mxCell id="1IBytOhJUT55JY2qpryn-107" value="" style="endArrow=none;html=1;rounded=0;exitX=0.384;exitY=0.015;exitDx=0;exitDy=0;exitPerimeter=0;entryX=0.5;entryY=1;entryDx=0;entryDy=0;" edge="1" parent="1" source="1IBytOhJUT55JY2qpryn-1" target="1IBytOhJUT55JY2qpryn-105">
          <mxGeometry width="50" height="50" relative="1" as="geometry">
            <mxPoint x="265" y="-20" as="sourcePoint" />
            <mxPoint x="315" y="-70" as="targetPoint" />
          </mxGeometry>
        </mxCell>
        <mxCell id="1IBytOhJUT55JY2qpryn-108" value="1" style="text;html=1;align=center;verticalAlign=middle;whiteSpace=wrap;rounded=0;" vertex="1" parent="1">
          <mxGeometry x="335" y="145" width="30" height="30" as="geometry" />
        </mxCell>
        <mxCell id="1IBytOhJUT55JY2qpryn-109" value="1" style="text;html=1;align=center;verticalAlign=middle;whiteSpace=wrap;rounded=0;" vertex="1" parent="1">
          <mxGeometry x="550" y="-200" width="30" height="30" as="geometry" />
        </mxCell>
        <mxCell id="1IBytOhJUT55JY2qpryn-110" value="M" style="text;html=1;align=center;verticalAlign=middle;whiteSpace=wrap;rounded=0;" vertex="1" parent="1">
          <mxGeometry x="1080" y="555" width="30" height="30" as="geometry" />
        </mxCell>
        <mxCell id="1IBytOhJUT55JY2qpryn-111" value="1" style="text;html=1;align=center;verticalAlign=middle;whiteSpace=wrap;rounded=0;" vertex="1" parent="1">
          <mxGeometry x="1300" y="635" width="30" height="30" as="geometry" />
        </mxCell>
        <mxCell id="1IBytOhJUT55JY2qpryn-112" value="" style="endArrow=none;html=1;rounded=0;entryX=0.5;entryY=1;entryDx=0;entryDy=0;exitX=1;exitY=0;exitDx=0;exitDy=0;" edge="1" parent="1" source="1IBytOhJUT55JY2qpryn-83" target="1IBytOhJUT55JY2qpryn-103">
          <mxGeometry width="50" height="50" relative="1" as="geometry">
            <mxPoint x="1385" y="655" as="sourcePoint" />
            <mxPoint x="1360" y="470" as="targetPoint" />
            <Array as="points" />
          </mxGeometry>
        </mxCell>
        <mxCell id="1IBytOhJUT55JY2qpryn-113" value="&lt;i&gt;Permission_Level_ID&lt;/i&gt;" style="ellipse;whiteSpace=wrap;html=1;" vertex="1" parent="1">
          <mxGeometry x="1260" y="350" width="125" height="40" as="geometry" />
        </mxCell>
        <mxCell id="1IBytOhJUT55JY2qpryn-114" value="" style="endArrow=none;html=1;rounded=0;entryX=0;entryY=0;entryDx=0;entryDy=0;exitX=0.5;exitY=1;exitDx=0;exitDy=0;" edge="1" parent="1" source="1IBytOhJUT55JY2qpryn-113" target="1IBytOhJUT55JY2qpryn-90">
          <mxGeometry width="50" height="50" relative="1" as="geometry">
            <mxPoint x="1385" y="595" as="sourcePoint" />
            <mxPoint x="1360" y="410" as="targetPoint" />
            <Array as="points" />
          </mxGeometry>
        </mxCell>
        <mxCell id="1IBytOhJUT55JY2qpryn-115" style="edgeStyle=orthogonalEdgeStyle;rounded=0;orthogonalLoop=1;jettySize=auto;html=1;exitX=0.5;exitY=1;exitDx=0;exitDy=0;" edge="1" parent="1" source="1IBytOhJUT55JY2qpryn-90" target="1IBytOhJUT55JY2qpryn-90">
          <mxGeometry relative="1" as="geometry" />
        </mxCell>
        <mxCell id="1IBytOhJUT55JY2qpryn-116" value="&lt;span style=&quot;font-size: 16px;&quot;&gt;permission_type&lt;/span&gt;" style="rounded=0;whiteSpace=wrap;html=1;" vertex="1" parent="1">
          <mxGeometry x="1385" y="130" width="140" height="30" as="geometry" />
        </mxCell>
        <mxCell id="1IBytOhJUT55JY2qpryn-117" value="has" style="rhombus;whiteSpace=wrap;html=1;" vertex="1" parent="1">
          <mxGeometry x="1385" y="240" width="80" height="80" as="geometry" />
        </mxCell>
        <mxCell id="1IBytOhJUT55JY2qpryn-118" value="" style="endArrow=none;html=1;rounded=0;entryX=0.5;entryY=1;entryDx=0;entryDy=0;exitX=0.5;exitY=0;exitDx=0;exitDy=0;" edge="1" parent="1" source="1IBytOhJUT55JY2qpryn-117" target="1IBytOhJUT55JY2qpryn-116">
          <mxGeometry width="50" height="50" relative="1" as="geometry">
            <mxPoint x="1460" y="247.5" as="sourcePoint" />
            <mxPoint x="1480" y="172.5" as="targetPoint" />
            <Array as="points" />
          </mxGeometry>
        </mxCell>
        <mxCell id="1IBytOhJUT55JY2qpryn-119" value="" style="endArrow=none;html=1;rounded=0;entryX=0.25;entryY=0;entryDx=0;entryDy=0;exitX=0.5;exitY=1;exitDx=0;exitDy=0;" edge="1" parent="1" source="1IBytOhJUT55JY2qpryn-117" target="1IBytOhJUT55JY2qpryn-90">
          <mxGeometry width="50" height="50" relative="1" as="geometry">
            <mxPoint x="1400" y="705" as="sourcePoint" />
            <mxPoint x="1420" y="630" as="targetPoint" />
            <Array as="points" />
          </mxGeometry>
        </mxCell>
        <mxCell id="1IBytOhJUT55JY2qpryn-120" value="&lt;u&gt;Permission_Type_ID&lt;/u&gt;" style="ellipse;whiteSpace=wrap;html=1;" vertex="1" parent="1">
          <mxGeometry x="1275" y="45" width="125" height="40" as="geometry" />
        </mxCell>
        <mxCell id="1IBytOhJUT55JY2qpryn-121" value="" style="endArrow=none;html=1;rounded=0;entryX=0;entryY=0;entryDx=0;entryDy=0;exitX=0.5;exitY=1;exitDx=0;exitDy=0;" edge="1" parent="1" source="1IBytOhJUT55JY2qpryn-120" target="1IBytOhJUT55JY2qpryn-116">
          <mxGeometry width="50" height="50" relative="1" as="geometry">
            <mxPoint x="1385" y="290" as="sourcePoint" />
            <mxPoint x="1400" y="145" as="targetPoint" />
            <Array as="points" />
          </mxGeometry>
        </mxCell>
        <mxCell id="1IBytOhJUT55JY2qpryn-122" value="Permission_Type" style="ellipse;whiteSpace=wrap;html=1;" vertex="1" parent="1">
          <mxGeometry x="1452.5" y="20" width="110" height="40" as="geometry" />
        </mxCell>
        <mxCell id="1IBytOhJUT55JY2qpryn-123" value="" style="endArrow=none;html=1;rounded=0;entryX=0.558;entryY=-0.032;entryDx=0;entryDy=0;exitX=0.5;exitY=1;exitDx=0;exitDy=0;entryPerimeter=0;" edge="1" parent="1" source="1IBytOhJUT55JY2qpryn-122" target="1IBytOhJUT55JY2qpryn-116">
          <mxGeometry width="50" height="50" relative="1" as="geometry">
            <mxPoint x="1562.5" y="265" as="sourcePoint" />
            <mxPoint x="1577.5" y="120" as="targetPoint" />
            <Array as="points" />
          </mxGeometry>
        </mxCell>
        <mxCell id="1IBytOhJUT55JY2qpryn-124" value="1" style="text;html=1;align=center;verticalAlign=middle;whiteSpace=wrap;rounded=0;" vertex="1" parent="1">
          <mxGeometry x="1430" y="500" width="30" height="30" as="geometry" />
        </mxCell>
        <mxCell id="1IBytOhJUT55JY2qpryn-125" value="M" style="text;html=1;align=center;verticalAlign=middle;whiteSpace=wrap;rounded=0;" vertex="1" parent="1">
          <mxGeometry x="1370" y="655" width="30" height="30" as="geometry" />
        </mxCell>
        <mxCell id="1IBytOhJUT55JY2qpryn-126" value="M" style="text;html=1;align=center;verticalAlign=middle;whiteSpace=wrap;rounded=0;" vertex="1" parent="1">
          <mxGeometry x="1452.5" y="170" width="30" height="30" as="geometry" />
        </mxCell>
        <mxCell id="1IBytOhJUT55JY2qpryn-127" value="M" style="text;html=1;align=center;verticalAlign=middle;whiteSpace=wrap;rounded=0;" vertex="1" parent="1">
          <mxGeometry x="1430" y="400" width="30" height="30" as="geometry" />
        </mxCell>
        <mxCell id="1IBytOhJUT55JY2qpryn-128" value="&lt;u&gt;User_ID&lt;/u&gt;" style="ellipse;whiteSpace=wrap;html=1;" vertex="1" parent="1">
          <mxGeometry x="1030" y="445" width="110" height="40" as="geometry" />
        </mxCell>
        <mxCell id="1IBytOhJUT55JY2qpryn-129" value="" style="endArrow=none;html=1;rounded=0;entryX=1;entryY=1;entryDx=0;entryDy=0;exitX=0.5;exitY=0;exitDx=0;exitDy=0;" edge="1" parent="1" source="1IBytOhJUT55JY2qpryn-130" target="1IBytOhJUT55JY2qpryn-30">
          <mxGeometry width="50" height="50" relative="1" as="geometry">
            <mxPoint x="1042.5" y="750" as="sourcePoint" />
            <mxPoint x="1027.5" y="725" as="targetPoint" />
          </mxGeometry>
        </mxCell>
        <mxCell id="1IBytOhJUT55JY2qpryn-130" value="First_Name" style="ellipse;whiteSpace=wrap;html=1;" vertex="1" parent="1">
          <mxGeometry x="1100" y="625" width="110" height="40" as="geometry" />
        </mxCell>
        <mxCell id="1IBytOhJUT55JY2qpryn-131" value="" style="endArrow=none;html=1;rounded=0;entryX=0.583;entryY=1.039;entryDx=0;entryDy=0;exitX=0.5;exitY=0;exitDx=0;exitDy=0;entryPerimeter=0;" edge="1" parent="1" source="1IBytOhJUT55JY2qpryn-132" target="1IBytOhJUT55JY2qpryn-30">
          <mxGeometry width="50" height="50" relative="1" as="geometry">
            <mxPoint x="990" y="800" as="sourcePoint" />
            <mxPoint x="997.5" y="620" as="targetPoint" />
          </mxGeometry>
        </mxCell>
        <mxCell id="1IBytOhJUT55JY2qpryn-132" value="Last_Name" style="ellipse;whiteSpace=wrap;html=1;" vertex="1" parent="1">
          <mxGeometry x="1010" y="665" width="110" height="40" as="geometry" />
        </mxCell>
        <mxCell id="1IBytOhJUT55JY2qpryn-133" value="" style="endArrow=none;html=1;rounded=0;entryX=0.75;entryY=0;entryDx=0;entryDy=0;exitX=0;exitY=0.5;exitDx=0;exitDy=0;" edge="1" parent="1" source="1IBytOhJUT55JY2qpryn-134" target="1IBytOhJUT55JY2qpryn-30">
          <mxGeometry width="50" height="50" relative="1" as="geometry">
            <mxPoint x="1140" y="620" as="sourcePoint" />
            <mxPoint x="1147.5" y="440" as="targetPoint" />
          </mxGeometry>
        </mxCell>
        <mxCell id="1IBytOhJUT55JY2qpryn-134" value="User_Email" style="ellipse;whiteSpace=wrap;html=1;" vertex="1" parent="1">
          <mxGeometry x="1120" y="485" width="110" height="40" as="geometry" />
        </mxCell>
        <mxCell id="1IBytOhJUT55JY2qpryn-136" value="Budget_Status" style="ellipse;whiteSpace=wrap;html=1;" vertex="1" parent="1">
          <mxGeometry x="640" y="495" width="110" height="40" as="geometry" />
        </mxCell>
        <mxCell id="1IBytOhJUT55JY2qpryn-137" value="" style="endArrow=none;html=1;rounded=0;exitX=0.75;exitY=0;exitDx=0;exitDy=0;entryX=0.5;entryY=1;entryDx=0;entryDy=0;" edge="1" parent="1" target="1IBytOhJUT55JY2qpryn-136" source="1IBytOhJUT55JY2qpryn-54">
          <mxGeometry width="50" height="50" relative="1" as="geometry">
            <mxPoint x="613" y="545" as="sourcePoint" />
            <mxPoint x="649" y="530" as="targetPoint" />
          </mxGeometry>
        </mxCell>
        <mxCell id="1IBytOhJUT55JY2qpryn-138" value="File_Name" style="ellipse;whiteSpace=wrap;html=1;" vertex="1" parent="1">
          <mxGeometry x="805" y="250" width="110" height="40" as="geometry" />
        </mxCell>
        <mxCell id="1IBytOhJUT55JY2qpryn-139" value="" style="endArrow=none;html=1;rounded=0;exitX=0.5;exitY=0;exitDx=0;exitDy=0;entryX=0;entryY=0.75;entryDx=0;entryDy=0;" edge="1" parent="1" source="1IBytOhJUT55JY2qpryn-138" target="1IBytOhJUT55JY2qpryn-13">
          <mxGeometry width="50" height="50" relative="1" as="geometry">
            <mxPoint x="785" y="257.5" as="sourcePoint" />
            <mxPoint x="890" y="185" as="targetPoint" />
          </mxGeometry>
        </mxCell>
        <mxCell id="1IBytOhJUT55JY2qpryn-140" value="File_Size" style="ellipse;whiteSpace=wrap;html=1;" vertex="1" parent="1">
          <mxGeometry x="1080" y="190" width="110" height="40" as="geometry" />
        </mxCell>
        <mxCell id="1IBytOhJUT55JY2qpryn-141" value="" style="endArrow=none;html=1;rounded=0;exitX=0;exitY=0.5;exitDx=0;exitDy=0;entryX=1;entryY=0.5;entryDx=0;entryDy=0;" edge="1" parent="1" source="1IBytOhJUT55JY2qpryn-140" target="1IBytOhJUT55JY2qpryn-13">
          <mxGeometry width="50" height="50" relative="1" as="geometry">
            <mxPoint x="1030" y="210" as="sourcePoint" />
            <mxPoint x="1080" y="160" as="targetPoint" />
          </mxGeometry>
        </mxCell>
        <mxCell id="1IBytOhJUT55JY2qpryn-142" value="" style="endArrow=none;html=1;rounded=0;entryX=0.5;entryY=1;entryDx=0;entryDy=0;exitX=0.5;exitY=0;exitDx=0;exitDy=0;" edge="1" parent="1" source="1IBytOhJUT55JY2qpryn-143" target="1IBytOhJUT55JY2qpryn-30">
          <mxGeometry width="50" height="50" relative="1" as="geometry">
            <mxPoint x="870" y="817" as="sourcePoint" />
            <mxPoint x="958" y="535" as="targetPoint" />
          </mxGeometry>
        </mxCell>
        <mxCell id="1IBytOhJUT55JY2qpryn-143" value="Phone_Number" style="ellipse;whiteSpace=wrap;html=1;" vertex="1" parent="1">
          <mxGeometry x="880" y="675" width="110" height="40" as="geometry" />
        </mxCell>
      </root>
    </mxGraphModel>
  </diagram>
</mxfile>
